# xmcd
#
# Track frame offsets:
#       150
#       18032
#       40045
#       55710
#       76896
#       94499
#       114090
#       129383
#       150683
#       167624
#       184958
#       190216
#
# Disc length: 3178 seconds
#
# Revision: 1
# Processed by: cddbd v1.5.2PL0 Copyright (c) Steve Scherf et al.
# Submitted via: FreeDbEdit v0.1
#
DISCID=890c680c
DTITLE=Paola and Chiara - Television
DYEAR=2001
DGENRE=Latin
TTITLE0=Vamos A Bailar
TTITLE1=Amoremidai
TTITLE2=Anni Luce
TTITLE3=Buona Stella
TTITLE4=Vicky
TTITLE5=Tu Sei Per Me
TTITLE6=Viva El Amor!
TTITLE7=Forte Di Te
TTITLE8=Arsenico
TTITLE9=Fino Alla Fine
TTITLE10=Television
TTITLE11=Vamos A Bailar (Pool-K Remix)
EXTD=
EXTT0=
EXTT1=
EXTT2=
EXTT3=
EXTT4=
EXTT5=
EXTT6=
EXTT7=
EXTT8=
EXTT9=
EXTT10=
EXTT11=
PLAYORDER=
